<?xml version="1.0" encoding="UTF-8" standalone="no"?>
<!-- Created with Inkscape (http://www.inkscape.org/) -->

<svg
   xmlns:dc="http://purl.org/dc/elements/1.1/"
   xmlns:cc="http://creativecommons.org/ns#"
   xmlns:rdf="http://www.w3.org/1999/02/22-rdf-syntax-ns#"
   xmlns:svg="http://www.w3.org/2000/svg"
   xmlns="http://www.w3.org/2000/svg"
   xmlns:sodipodi="http://sodipodi.sourceforge.net/DTD/sodipodi-0.dtd"
   xmlns:inkscape="http://www.inkscape.org/namespaces/inkscape"
   width="744.09448819"
   height="1052.3622047"
   id="svg5654"
   version="1.1"
   inkscape:version="0.48.2 r9819"
   sodipodi:docname="New document 13">
  <defs
     id="defs5656" />
  <sodipodi:namedview
     id="base"
     pagecolor="#ffffff"
     bordercolor="#666666"
     borderopacity="1.0"
     inkscape:pageopacity="0.0"
     inkscape:pageshadow="2"
     inkscape:zoom="0.7"
     inkscape:cx="273.88285"
     inkscape:cy="702.05224"
     inkscape:document-units="px"
     inkscape:current-layer="layer1"
     showgrid="false"
     inkscape:window-width="1920"
     inkscape:window-height="1056"
     inkscape:window-x="0"
     inkscape:window-y="24"
     inkscape:window-maximized="1" />
  <metadata
     id="metadata5659">
    <rdf:RDF>
      <cc:Work
         rdf:about="">
        <dc:format>image/svg+xml</dc:format>
        <dc:type
           rdf:resource="http://purl.org/dc/dcmitype/StillImage" />
        <dc:title></dc:title>
      </cc:Work>
    </rdf:RDF>
  </metadata>
  <g
     inkscape:label="Layer 1"
     inkscape:groupmode="layer"
     id="layer1">
    <g
       id="g6641"
       transform="translate(-182.85714,-188.57143)">
      <path
         style="fill:#f4f4f4"
         d="m 378.92856,495.21933 0,-112.5 112.5,0 112.5,0 0,112.5 0,112.5 -112.5,0 -112.5,0 0,-112.5 z"
         id="path6645"
         inkscape:connector-curvature="0" />
      <path
         style="fill:#161616"
         d="m 473.92856,606.30109 c -21.20931,-3.79615 -37.35938,-11.83625 -56.06197,-27.90973 -13.8386,-11.89324 -26.76081,-30.51253 -32.99477,-47.54132 -7.60065,-20.76207 -7.85047,-49.44067 -0.61527,-70.63071 7.87468,-23.06291 25.09723,-45.27889 46.07628,-59.43541 46.21231,-31.18374 113.40937,-20.36705 148.87944,23.96506 17.1597,21.44697 25.68147,48.1567 24.39797,76.47035 -1.31039,28.90667 -13.37103,54.69979 -35.34778,75.59543 -14.09046,13.3973 -31.11078,23.13398 -48.25312,27.60377 -11.86348,3.09335 -34.21438,4.00646 -46.08078,1.88256 z m 16.95432,-3.02672 c 0.65956,-0.79472 1.05216,-2.47514 0.87244,-3.73425 -0.26824,-1.8793 -1.84904,-2.83908 -8.82676,-5.35913 -9.83053,-3.55037 -11.23987,-4.25216 -20,-9.95917 -6.04174,-3.93604 -7.24026,-4.31596 -17,-5.38884 -5.775,-0.63484 -12.93881,-1.79952 -15.91957,-2.58817 -8.69253,-2.29988 -9.67224,0.089 -2.33043,5.68235 15.82284,12.0547 33.82812,19.69963 51.25,21.76044 9.88757,1.16959 10.66294,1.14279 11.95432,-0.41323 z m 27.75149,-2.11796 c 10.84993,-2.71014 23.05299,-8.25291 32.79419,-14.89552 8.84831,-6.03373 12.5,-9.44284 12.5,-11.66963 0,-2.74306 -1.36087,-2.9875 -8.16363,-1.46636 -3.485,0.77927 -10.38182,1.73119 -15.32626,2.11539 l -8.9899,0.69854 -6.03684,5.64025 c -6.4627,6.03813 -14.74999,10.91176 -23.24409,13.6695 -3.99388,1.29667 -5.40543,2.28456 -5.86166,4.10235 -1.45192,5.78489 4.47732,6.26434 22.32819,1.80548 z m -60.52065,-29.93708 c 3.21675,-4.64608 8.81484,-18.40825 8.81484,-21.67013 0,-1.22906 -1.30659,-3.60608 -2.90353,-5.28226 -5.62696,-5.90617 -13.74697,-18.30714 -17.62406,-26.91566 -2.79713,-6.21061 -4.5019,-8.81433 -5.94682,-9.08268 -1.51782,-0.28189 -23.63308,-3.68441 -31.93938,-4.914 -1.57829,-0.23364 -5.39364,7.48663 -8.73155,17.66808 l -3.21396,9.80335 2.16102,6.69665 c 2.80336,8.68713 8.3827,18.11971 14.92362,25.23028 4.09439,4.45097 6.57522,6.1726 11.46228,7.95451 7.92838,2.89083 18.8934,4.92745 25.27024,4.69364 4.57394,-0.1677 5.17232,-0.49153 7.7273,-4.18178 z m 91.1312,-1.00017 c 10.54897,-0.88078 13.42484,-2.48357 19.33203,-10.77418 6.69858,-9.40131 11.68602,-18.6619 14.34212,-26.63015 1.8816,-5.64478 1.99582,-7.00896 0.96293,-11.5 -1.58023,-6.87085 -7.1997,-18.54156 -10.3538,-21.50314 l -2.56414,-2.40764 -10.76775,2.60853 c -5.92226,1.4347 -12.8308,2.89557 -15.35231,3.24638 -2.5215,0.35081 -5.01125,0.93541 -5.53276,1.2991 -0.52151,0.3637 -2.23877,4.03627 -3.81613,8.16127 -3.61351,9.44977 -7.72019,17.70891 -12.82234,25.78759 -4.89292,7.74739 -4.72596,10.14317 1.46043,20.95559 6.44627,11.26661 7.78103,12.43332 13.53126,11.82761 2.62026,-0.27601 7.83146,-0.75795 11.58046,-1.07096 z m -43.31636,-25.03532 c 9.61174,-1.69466 9.33711,-1.46572 16.73531,-13.95137 4.77993,-8.06692 12.26469,-25.34514 12.26469,-28.31247 0,-3.0716 -8.99228,-19.73564 -13.99606,-25.93681 -8.05711,-9.98514 -7.37712,-9.76386 -30.00394,-9.76386 -16.78158,0 -19.96113,0.24451 -22.19265,1.70666 -5.45382,3.57348 -22.05735,32.50573 -22.05735,38.43573 0,5.45132 11.91226,26.34898 20.01233,35.10761 l 3.93045,4.25 13.40361,-0.0184 c 7.37199,-0.0102 17.22861,-0.69284 21.90361,-1.51709 z M 396.90219,518.21933 c 1.25455,-3.85 3.13885,-8.69926 4.18734,-10.77614 1.70145,-3.37027 1.91601,-6.25011 1.99616,-26.7932 0.0494,-12.65938 -0.0783,-23.1327 -0.28366,-23.27406 -0.20541,-0.14136 -1.8705,-1.47192 -3.7002,-2.95681 -4.8517,-3.93739 -6.91234,-3.5439 -9.26235,1.76868 -7.41849,16.77074 -9.52059,47.23068 -4.4308,64.20337 1.21701,4.05829 2.1397,5.37817 4.28541,6.13011 3.5916,1.25862 4.39378,0.33471 7.2081,-8.30195 z m 196.72555,1.54187 c 3.80195,-2.31819 4.97042,-5.89213 5.905,-18.06122 1.35272,-17.61385 -5.09063,-46.46315 -12.28762,-55.01629 -2.32624,-2.76458 -2.62669,-2.85346 -5.14356,-1.52162 -4.68801,2.48075 -9.34825,7.42157 -8.7825,9.31127 1.97068,6.5824 2.82864,17.04097 2.30575,28.10734 -0.56621,11.98335 -0.50374,12.52448 1.79335,15.53612 2.08879,2.73855 6.99363,12.62345 10.34692,20.85253 1.33299,3.2712 1.71238,3.32245 5.86266,0.79187 z m -80.05778,-58.15922 c 4.27558,-3.54841 16.3586,-23.98362 16.3586,-27.6662 0,-4.5327 -18.24322,-27.58447 -23.60259,-29.82376 -4.92626,-2.05833 -18.8134,-2.80511 -27.39741,-1.47329 -12.90425,2.00209 -14.49043,2.75957 -18.79618,8.97604 -5.71837,8.25595 -14.20382,23.78063 -14.20382,25.9868 0,2.48395 6.34876,10.89386 14.44251,19.13131 l 6.40905,6.52285 22.59709,-0.16474 c 17.08624,-0.12456 22.98623,-0.48769 24.19275,-1.48901 z m -100.28529,-12.4911 c 6.90215,-5.18844 14.681,-9.30677 22.27628,-11.79367 5.70461,-1.86785 6.78521,-2.87557 10.82811,-10.09788 1.5394,-2.75 5.30074,-9.00877 8.35854,-13.90838 l 5.55964,-8.90838 -4.93934,-4.32105 c -2.71664,-2.37658 -5.64459,-4.33031 -6.50657,-4.34162 -2.46717,-0.0324 -18.20652,9.73758 -26.92532,16.71348 -11.43265,9.14725 -26.00745,28.00287 -26.00745,33.6462 0,1.65591 7.67793,7.61975 9.80976,7.61975 0.77867,0 4.17453,-2.0738 7.54635,-4.60845 z m 161.87362,-3.84079 c 2.48454,-1.89709 4.79885,-4.18284 5.14291,-5.07947 1.68867,-4.4006 -3.31588,-12.40209 -14.14824,-22.62079 -10.69305,-10.08728 -26.0181,-19.47889 -39.16763,-24.00299 l -5.4522,-1.87584 -4.30229,4.22238 c -2.36625,2.3223 -4.30228,5.06906 -4.30228,6.1039 0,1.03484 2.27442,4.42865 5.05427,7.54179 2.77985,3.11314 7.68373,9.49433 10.89751,14.18042 l 5.84324,8.52016 7.35249,2.35695 c 8.26683,2.65005 21.07371,8.81102 24.85249,11.9557 1.375,1.14427 2.77279,2.09546 3.1062,2.11376 0.33341,0.0183 2.639,-1.51889 5.12353,-3.41597 z"
         id="path6643"
         inkscape:connector-curvature="0" />
    </g>
  </g>
</svg>
